<svg width="263" height="268" viewBox="0 0 263 268" fill="none" xmlns="http://www.w3.org/2000/svg">
<g clip-path="url(#clip0_84_12715)">
<path d="M152.613 39.5868C161.012 40.0899 168.765 44.5396 176.43 54.1588L177.173 55.1061C195.447 78.8516 198.759 128.003 158.891 164.313L157.942 165.169C117.463 201.212 66.914 187.184 47.3826 165.883L46.9272 165.378C41.1855 158.921 37.6485 152.067 36.93 144.807C36.235 137.786 38.1639 130.263 43.4981 122.207L44.0249 121.426C47.8683 115.828 53.9317 110.105 61.1761 103.894C68.374 97.7215 76.7744 91.0375 85.065 83.6554C92.0394 77.4453 98.6857 70.7961 104.971 64.8402C110.889 59.2333 116.494 54.2331 121.859 50.6536L122.929 49.9566C134.217 42.7878 143.879 39.0637 152.613 39.5868Z" stroke="#FDD20C" stroke-width="2"/>
<path d="M164.659 54.4194C174.884 62.8358 181.145 79.4713 181.871 96.1837C182.585 112.646 177.915 128.741 166.896 136.877L166.366 137.258C164.586 138.508 162.275 138.152 159.265 136.137C156.289 134.145 152.987 130.748 149.566 126.726C146.156 122.715 142.694 118.164 139.378 113.899C136.284 109.921 133.306 106.177 130.655 103.433L130.128 102.897C121.636 94.4007 113.736 89.1699 108.641 85.1066C106.055 83.0446 104.265 81.3419 103.338 79.6912C102.52 78.234 102.362 76.7997 103.071 75.0662L103.225 74.7155C104.841 71.2402 109.154 65.7533 115.762 60.8754L116.408 60.4051C123.544 55.2964 132.301 51.0248 140.946 49.4341C149.312 47.8945 157.48 48.8771 164.031 53.9186L164.659 54.4194Z" stroke="#FFDD42" stroke-opacity="0.56" stroke-width="2"/>
<path fill-rule="evenodd" clip-rule="evenodd" d="M115.937 74.6584C116.682 73.1042 121.272 70.1123 123.308 68.7365C129.262 64.7112 137.814 63.8504 143.421 68.4658C151.913 75.4559 151.967 90.369 142.441 97.0591C138.707 99.6811 131.348 90.8043 126.945 86.3986C120.136 79.5864 114.261 78.1554 115.937 74.6584Z" fill="white" fill-opacity="0.33"/>
<path d="M142.786 69.2373C150.671 75.7282 150.818 89.512 142.279 95.94L141.866 96.2409C141.336 96.613 140.584 96.6671 139.447 96.1953C138.31 95.7238 136.998 94.8039 135.594 93.6041C133.127 91.4947 130.635 88.7582 128.53 86.5852L127.652 85.6913C124.19 82.2273 120.91 80.086 118.873 78.4968C117.816 77.6723 117.172 77.0567 116.858 76.5114C116.714 76.2603 116.656 76.0484 116.649 75.8526C116.644 75.7048 116.667 75.5302 116.743 75.3171L116.839 75.0905C116.935 74.8894 117.233 74.5214 117.793 74.0072C118.324 73.5197 119.001 72.9805 119.736 72.4328C120.471 71.8846 121.247 71.3416 121.967 70.8489L123.868 69.5652C129.492 65.763 137.375 65.0131 142.542 69.0424L142.786 69.2373Z" stroke="#FFDD42" stroke-opacity="0.56" stroke-width="2"/>
<path d="M67.1278 108.878C68.0237 109.489 68.5317 110.594 68.8791 112.634C69.0499 113.637 69.1723 114.799 69.3072 116.151C69.4411 117.493 69.5856 119.008 69.8007 120.676C70.6388 127.173 72.5432 135.973 79.0778 146.998L79.7246 148.071C82.2394 152.179 86.3648 159.158 95.6296 166.092L96.542 166.763C98.8154 168.403 100.634 169.606 101.753 170.758C102.299 171.319 102.585 171.78 102.693 172.173C102.777 172.48 102.771 172.81 102.59 173.22L102.501 173.4C101.56 175.152 99.3325 176.516 95.8807 177.103C92.4607 177.685 88.018 177.466 82.9761 176.236C73.2169 173.856 61.359 167.723 50.6197 156.619L49.5839 155.53C41.3664 146.725 42.8716 133.164 48.169 122.554C50.8022 117.28 54.3095 112.882 57.8277 110.318C61.2645 107.814 64.4376 107.22 66.8925 108.726L67.1278 108.878Z" stroke="#FFDD42" stroke-opacity="0.56" stroke-width="2"/>
<path fill-rule="evenodd" clip-rule="evenodd" d="M64.4537 115.691C66.5617 117.387 64.834 122.196 67.0391 133.875C68.1109 139.555 72.2762 146.531 71.4735 149.042C70.3047 152.699 65.3807 153.98 56.346 142.614C49.3302 133.787 59.4065 111.63 64.4537 115.691Z" fill="white" fill-opacity="0.33"/>
<path d="M63.8266 116.471C64.0929 116.685 64.3079 117.037 64.4549 117.796C64.6061 118.576 64.6561 119.617 64.7106 121.077C64.8113 123.779 64.9245 127.625 65.8588 132.971L66.0569 134.06C66.6144 137.014 67.9698 140.287 69.0267 143.008C69.5655 144.396 70.0263 145.634 70.3048 146.671C70.5606 147.623 70.6139 148.242 70.5537 148.6L70.5209 148.738C70.2836 149.48 69.884 150.017 69.3755 150.319C68.8805 150.614 68.1569 150.762 67.1083 150.493C65.0707 149.97 62.0285 147.92 57.9567 143.012L57.1291 141.991C55.5728 140.033 54.9076 137.255 54.9431 134.124C54.9785 131.006 55.709 127.65 56.814 124.667C57.9235 121.673 59.3784 119.141 60.7999 117.628C61.5154 116.867 62.1551 116.436 62.6689 116.274C63.0673 116.149 63.3891 116.179 63.6961 116.376L63.8266 116.471Z" stroke="#FFDD42" stroke-opacity="0.56" stroke-width="2"/>
<path d="M119.39 105.977L122.917 109.261C126.087 112.225 133.304 119.354 140.014 127.251C143.369 131.2 146.584 135.325 149.101 139.206C151.473 142.865 153.173 146.229 153.829 148.983L153.946 149.526C154.583 152.837 152.536 156.344 148.608 160.059C145.216 163.268 140.649 166.419 135.941 169.473L133.917 170.775C126.951 175.233 119.388 174.302 111.93 169.905C104.44 165.49 97.1859 157.636 91.1065 148.555C85.035 139.486 80.1905 129.275 77.4816 120.232C76.1271 115.711 75.3147 111.508 75.1394 107.905C74.9743 104.51 75.3788 101.733 76.3469 99.7243L76.5481 99.3335L76.5488 99.3328C77.5865 97.4365 78.471 95.7664 79.9965 93.9321C81.4248 92.2147 83.4401 90.3264 86.6976 88.0301L87.3649 87.5651C90.4049 85.4782 94.2536 86.0773 100.085 89.8432C105.155 93.1172 111.409 98.5862 119.39 105.977Z" stroke="#FFDD42" stroke-opacity="0.56" stroke-width="2"/>
<path fill-rule="evenodd" clip-rule="evenodd" d="M83.8899 100.318C84.9477 98.3845 85.7953 96.7145 89.6016 94.1016C93.2802 91.5762 98.5534 95.9948 108.49 105.286C111.764 108.347 119.669 116.582 120.873 122.834C121.637 126.8 117.405 131.452 111.868 134.995C96.7148 144.694 78.8032 109.613 83.8899 100.318Z" fill="white" fill-opacity="0.33"/>
<path d="M105.995 104.329L107.807 106.016C109.419 107.523 112.176 110.31 114.672 113.482C117.117 116.589 119.204 119.934 119.835 122.752L119.891 123.022C120.192 124.586 119.529 126.445 117.948 128.454C116.482 130.316 114.328 132.172 111.832 133.825L111.329 134.153C107.921 136.334 104.364 136.038 100.874 134.102C97.3388 132.14 93.9461 128.519 91.1245 124.229C88.3109 119.952 86.1211 115.096 84.95 110.761C84.3645 108.594 84.0411 106.583 84.0103 104.857C83.9813 103.226 84.2146 101.921 84.6722 100.981L84.7675 100.798C85.3032 99.8189 85.7362 99.0035 86.4843 98.104C87.1371 97.3191 88.0518 96.4468 89.5094 95.3904L90.1678 94.9264C91.4632 94.0371 93.1892 94.1867 96.1566 96.1029C98.7205 97.7586 101.9 100.537 105.995 104.329Z" stroke="#FFDD42" stroke-opacity="0.56" stroke-width="2"/>
<path d="M211.342 54.6161C211.932 54.8797 212.405 55.3456 212.678 55.926L212.782 56.1808C212.995 56.792 212.981 57.4579 212.746 58.0574L212.631 58.3103L205.603 71.9601L205.225 72.6928L205.873 73.2031L219.41 83.8726C219.989 84.3296 220.356 85.0065 220.422 85.7442C220.479 86.39 220.302 87.0332 219.928 87.558L219.756 87.7754L209.61 99.3033L209.066 99.9207L209.568 100.573L220.075 114.237L220.076 114.238C220.47 114.75 220.664 115.385 220.628 116.027L220.599 116.303C220.497 116.944 220.168 117.525 219.677 117.943L219.456 118.112L205.848 127.48L205.169 127.948L205.498 128.704L212.108 143.869C212.366 144.462 212.401 145.127 212.212 145.743L212.117 146.003C211.863 146.602 211.403 147.087 210.826 147.375L210.573 147.485L194.225 153.632L193.459 153.92L193.59 154.729L195.961 169.372C196.065 170.012 195.934 170.666 195.598 171.216L195.442 171.445C195.047 171.964 194.482 172.32 193.854 172.455L193.581 172.499L193.58 172.5L177.747 174.246L176.932 174.337L176.862 175.154L175.47 191.207C175.406 191.946 175.041 192.628 174.46 193.092C173.951 193.498 173.317 193.706 172.675 193.684L172.4 193.66L156.699 191.492L155.886 191.38L155.617 192.156L150.99 205.534C150.747 206.236 150.225 206.808 149.549 207.116C148.957 207.386 148.294 207.433 147.678 207.254L147.417 207.164L133.583 201.564L132.821 201.256L132.37 201.944L123.727 215.156C123.371 215.701 122.832 216.097 122.214 216.278L121.945 216.341C121.306 216.458 120.652 216.341 120.099 216.017L119.868 215.866L109.141 208.006L108.477 207.519L107.872 208.078L96.1998 218.849C95.6528 219.354 94.924 219.611 94.1849 219.563C93.5382 219.52 92.9329 219.247 92.4765 218.798L92.2909 218.594L81.3532 205.361L80.8273 204.725L80.1038 205.12L67.4099 212.039C66.7576 212.395 65.9886 212.467 65.2848 212.239C64.6694 212.04 64.1507 211.626 63.8181 211.078L63.6869 210.836L57.689 198.194L57.3361 197.448L56.5362 197.655L41.1772 201.619C40.4584 201.804 39.6974 201.686 39.072 201.293C38.5246 200.949 38.122 200.422 37.9337 199.808L37.8664 199.541L34.9036 184.586L34.8282 184.208L34.5199 183.978C30.2652 180.812 26.2315 177.323 22.458 173.529L22.4588 173.53C21.2391 172.289 20.5881 170.596 20.6629 168.852C20.7377 167.108 21.5316 165.47 22.8559 164.328L23.0445 164.164L23.0557 164.135C24.6329 162.885 26.8874 162.995 28.3251 164.381L28.4652 164.523L28.4695 164.527C44.8367 181.735 66.9853 192.38 90.7625 194.384L91.8963 194.473C145.209 198.342 191.826 158.522 196.534 105.39L196.637 104.132C198.442 80.326 191.469 56.7856 177.16 37.904L176.474 37.0083L176.469 37.003L176.347 36.8388C175.129 35.1224 175.407 32.7348 177.028 31.3367L177.287 31.1129C178.491 30.182 179.989 29.7146 181.505 29.7961L181.831 29.8224C183.567 30.0055 185.148 30.8993 186.197 32.2909L186.197 32.2916C187.105 33.5158 187.987 34.7573 188.84 36.015L189.685 37.2786C191.823 40.5284 193.779 43.8826 195.546 47.3253L195.706 47.6385L196.028 47.7818L211.342 54.6161Z" stroke="#31AB4A" stroke-width="2"/>
</g>
<defs>
<clipPath id="clip0_84_12715">
<rect width="148" height="227" fill="white" transform="translate(153.583) rotate(42.5767)"/>
</clipPath>
</defs>
</svg>
