<svg width="314" height="193" viewBox="0 0 314 193" fill="none" xmlns="http://www.w3.org/2000/svg">
<g clip-path="url(#clip0_294_564)">
<path fill-rule="evenodd" clip-rule="evenodd" d="M198.519 39.3496C212.054 56.9369 214.327 93.2792 184.541 119.801C154.754 146.324 117.456 135.743 103.362 119.893C94.9333 110.415 92.7797 99.5482 101.21 87.2687C106.878 79.0136 118.985 70.5271 130.959 59.865C141.011 50.9152 150.049 40.7608 158.392 35.4625C174.773 25.0594 186.94 24.3045 198.519 39.3496Z" fill="#FFDD42" fill-opacity="0.33"/>
<path fill-rule="evenodd" clip-rule="evenodd" d="M143.897 53.6448C145.167 50.9148 148.542 46.6866 153.65 43.0292C164.081 35.5619 179.333 30.4748 189.37 38.7367C204.572 51.2498 207.612 87.7236 190.558 99.6998C183.875 104.393 171.351 82.696 163.467 74.8084C151.279 62.6143 140.966 59.9472 143.897 53.6448Z" fill="#FDD20C"/>
<path fill-rule="evenodd" clip-rule="evenodd" d="M148.123 53.1457C149.125 51.0562 155.297 47.0339 158.033 45.1842C166.039 39.7721 177.536 38.6153 185.074 44.8199C196.492 54.2177 196.564 74.268 183.756 83.2624C178.737 86.7874 168.843 74.8535 162.922 68.9297C153.768 59.7714 145.869 57.8472 148.123 53.1457Z" fill="white" fill-opacity="0.33"/>
<path fill-rule="evenodd" clip-rule="evenodd" d="M153.73 53.9081C154.268 52.7858 157.583 50.6255 159.053 49.6321C163.352 46.7255 169.527 46.104 173.576 49.4366C179.708 54.4839 179.747 65.2521 172.868 70.0828C170.172 71.9761 164.859 65.5664 161.679 62.3852C156.762 57.4664 152.52 56.4331 153.73 53.9081Z" fill="white" fill-opacity="0.33"/>
<path fill-rule="evenodd" clip-rule="evenodd" d="M118.894 78.02C122.523 80.4938 118.136 90.1014 128.199 106.54C130.062 109.583 133.114 114.751 140.149 119.828C143.333 122.125 145.746 123.536 144.665 125.548C141.336 131.742 121.371 130.023 105.292 112.795C92.8045 99.4156 110.205 72.0972 118.894 78.02Z" fill="#FDD20C" fill-opacity="0.65"/>
<path fill-rule="evenodd" clip-rule="evenodd" d="M117.854 82.4001C120.245 84.3248 117.705 90.3006 122.763 102.795C124.164 106.257 125.911 110.711 129.593 115.531C134.651 122.15 120.227 122.297 109.975 109.4C102.014 99.3835 112.127 77.7913 117.854 82.4001Z" fill="white" fill-opacity="0.33"/>
<path fill-rule="evenodd" clip-rule="evenodd" d="M116.556 83.5364C118.079 84.7611 116.831 88.2331 118.423 96.6658C119.197 100.767 122.205 105.804 121.625 107.618C120.781 110.258 117.226 111.183 110.702 102.976C105.636 96.6027 112.912 80.6039 116.556 83.5364Z" fill="white" fill-opacity="0.33"/>
<path fill-rule="evenodd" clip-rule="evenodd" d="M124.656 71.3779C126.145 68.6575 127.337 66.308 132.691 62.6324C137.867 59.0795 145.285 65.2959 159.264 78.3661C163.871 82.6736 180.19 99.0359 181.884 107.83C182.959 113.41 174.891 118.934 167.102 123.918C145.784 137.563 117.5 84.4536 124.656 71.3779Z" fill="#FDD20C" fill-opacity="0.78"/>
<path fill-rule="evenodd" clip-rule="evenodd" d="M127.257 71.6344C128.428 69.4943 129.365 67.6462 133.578 64.7546C137.649 61.9597 143.485 66.8498 154.482 77.1319C158.106 80.5203 166.854 89.634 168.186 96.5525C169.032 100.942 164.348 106.09 158.221 110.012C141.45 120.745 121.627 81.9208 127.257 71.6344Z" fill="white" fill-opacity="0.33"/>
<path fill-rule="evenodd" clip-rule="evenodd" d="M130.591 72.4359C131.354 71.0398 131.966 69.8339 134.715 67.9473C137.371 66.1238 141.179 69.3143 148.353 76.0228C150.718 78.2337 156.425 84.1798 157.295 88.6935C157.846 91.5574 154.79 94.9165 150.792 97.4751C139.851 104.478 126.918 79.1473 130.591 72.4359Z" fill="white" fill-opacity="0.33"/>
<path fill-rule="evenodd" clip-rule="evenodd" d="M94.5112 133.423C91.4094 131.115 88.4691 128.571 85.7183 125.805C84.6971 124.766 84.1529 123.349 84.2154 121.891C84.278 120.432 84.9415 119.063 86.0484 118.108C86.0589 118.081 86.0785 118.064 86.0978 118.047C87.5676 116.779 89.7715 116.891 91.0968 118.301C102.979 130.793 119.125 138.446 136.424 139.702C174.825 142.488 208.367 113.557 211.281 75.1351C212.592 57.8516 207.428 40.7644 196.871 27.1651C195.652 25.6142 195.872 23.3735 197.371 22.0806L197.366 22.0753C198.476 21.1177 199.931 20.6619 201.386 20.8158C202.84 20.9692 204.164 21.719 205.043 22.8863C205.925 24.0759 206.773 25.288 207.584 26.5203C209.143 28.8887 210.568 31.3333 211.856 33.8422L222.913 38.7768C223.582 39.0752 224.098 39.636 224.34 40.328C224.582 41.0197 224.529 41.7814 224.192 42.4344L219.117 52.2904L228.891 59.994C229.466 60.4472 229.829 61.1177 229.894 61.8481C229.96 62.5785 229.722 63.3049 229.236 63.8563L221.911 72.18L229.498 82.0465C229.944 82.6269 230.131 83.3662 230.016 84.0912C229.901 84.8161 229.493 85.4624 228.887 85.8792L219.061 92.6436L223.834 103.594C224.127 104.266 224.13 105.029 223.843 105.705C223.557 106.381 223.005 106.911 222.317 107.169L210.514 111.608L212.226 122.182C212.343 122.906 212.157 123.647 211.713 124.231C211.267 124.816 210.602 125.193 209.873 125.273L198.441 126.534L197.436 138.126C197.373 138.857 197.012 139.53 196.438 139.989C195.864 140.447 195.128 140.65 194.402 140.55L183.064 138.985L179.723 148.644C179.483 149.338 178.969 149.903 178.3 150.208C177.632 150.513 176.869 150.53 176.19 150.255L166.201 146.211L159.96 155.752C159.557 156.367 158.92 156.79 158.199 156.922C157.477 157.054 156.733 156.884 156.143 156.451L148.397 150.776L139.969 158.554C139.429 159.052 138.709 159.307 137.977 159.259C137.245 159.211 136.567 158.864 136.1 158.299L128.202 148.743L119.037 153.74C118.392 154.091 117.632 154.162 116.935 153.937C116.237 153.711 115.665 153.208 115.351 152.546L111.02 143.418L99.9298 146.281C99.219 146.464 98.4652 146.347 97.845 145.958C97.2248 145.569 96.7928 144.941 96.6504 144.221L94.5112 133.423Z" fill="#31AB4A"/>
</g>
<g clip-path="url(#clip1_294_564)">
<path fill-rule="evenodd" clip-rule="evenodd" d="M69.5161 75.605C62.6123 71.4989 57.0478 58.1551 63.636 42.4703C70.224 26.7856 84.2509 23.7424 91.1152 27.0844C95.2199 29.0828 97.3827 32.7942 96.1479 39.0424C95.3176 43.2427 92.3371 48.7487 89.6886 55.054C87.4653 60.3467 85.7443 65.9044 83.6181 69.4902C79.4429 76.5307 75.4221 79.1177 69.5161 75.605Z" fill="#FFDD42" fill-opacity="0.33"/>
<path fill-rule="evenodd" clip-rule="evenodd" d="M86.1279 59.8581C86.0581 61.1329 85.473 63.3735 84.2254 65.7258C81.6783 70.5285 77.1844 75.3406 72.6954 74.1072C65.8963 72.2396 60.055 58.9906 64.2502 51.2267C65.8942 48.1842 72.998 54.0391 76.7084 55.5375C82.4449 57.8544 86.2891 56.9153 86.1279 59.8581Z" fill="#FDD20C"/>
<path fill-rule="evenodd" clip-rule="evenodd" d="M84.7626 60.8464C84.6991 61.8278 83.1396 64.5192 82.457 65.7379C80.4599 69.3028 76.7189 71.9155 73.3475 70.9893C68.2411 69.5867 65.5716 62.0013 68.7221 56.1704C69.9571 53.8852 74.8819 56.5371 77.6684 57.6626C81.9766 59.4027 84.9056 58.6383 84.7626 60.8464Z" fill="white" fill-opacity="0.33"/>
<path fill-rule="evenodd" clip-rule="evenodd" d="M82.7632 61.6178C82.729 62.145 81.8914 63.5905 81.5249 64.2448C80.4523 66.1595 78.4432 67.5627 76.6324 67.0653C73.8899 66.3119 72.4562 62.2379 74.1483 59.1066C74.8114 57.8792 77.4565 59.3036 78.9531 59.9079C81.2669 60.8424 82.8398 60.432 82.7632 61.6178Z" fill="white" fill-opacity="0.33"/>
<path fill-rule="evenodd" clip-rule="evenodd" d="M91.3794 45.8916C89.8241 45.6404 90.042 41.1696 84.4656 36.8421C83.4332 36.0409 81.7176 34.6596 78.6659 34.0659C77.2843 33.7973 76.2809 33.7188 76.3817 32.752C76.6921 29.7745 83.6799 26.6507 91.3981 30.1397C97.3919 32.8491 95.1034 46.4933 91.3794 45.8916Z" fill="#FDD20C" fill-opacity="0.65"/>
<path fill-rule="evenodd" clip-rule="evenodd" d="M91.1538 44.035C90.0899 43.7577 90.1618 41.0124 86.8008 37.2335C85.8696 36.1864 84.6901 34.8284 82.8075 33.6982C80.2213 32.1457 85.0865 29.3624 90.2599 32.312C94.2774 34.6029 93.7013 44.6986 91.1538 44.035Z" fill="white" fill-opacity="0.33"/>
<path fill-rule="evenodd" clip-rule="evenodd" d="M91.4433 43.3588C90.7662 43.1824 90.7307 41.6309 89.079 38.7357C88.2756 37.3276 86.5927 35.9874 86.5497 35.1904C86.4871 34.0301 87.5692 33.0073 90.8611 34.8842C93.4176 36.3418 93.0641 43.7812 91.4433 43.3588Z" fill="white" fill-opacity="0.33"/>
<path fill-rule="evenodd" clip-rule="evenodd" d="M90.3043 49.4987C90.1592 50.8113 90.0655 51.9272 88.737 54.3327C87.4532 56.6579 84.1206 55.7048 77.6626 53.3945C75.5342 52.6332 67.8487 49.5178 66.115 46.5049C65.0149 44.5935 67.0182 40.9746 68.9982 37.6123C74.4177 28.4099 91.0028 43.1897 90.3043 49.4987Z" fill="#FDD20C" fill-opacity="0.78"/>
<path fill-rule="evenodd" clip-rule="evenodd" d="M89.3899 49.8931C89.2756 50.9258 89.2019 51.8036 88.1568 53.6962C87.1469 55.5253 84.5252 54.7754 79.4447 52.958C77.7704 52.3591 73.6055 50.5592 72.2416 48.1891C71.3763 46.6853 72.2831 43.8485 73.8409 41.2034C78.104 33.9641 89.9393 44.9302 89.3899 49.8931Z" fill="white" fill-opacity="0.33"/>
<path fill-rule="evenodd" clip-rule="evenodd" d="M88.1552 50.2198C88.0806 50.8936 88.0325 51.4663 87.3507 52.701C86.6916 53.8945 84.9812 53.4051 81.6666 52.2194C80.5741 51.8287 77.8569 50.6543 76.9669 49.1081C76.4023 48.127 76.9941 46.2759 78.0102 44.5502C80.7918 39.8271 88.5135 46.9818 88.1552 50.2198Z" fill="white" fill-opacity="0.33"/>
</g>
<g clip-path="url(#clip2_294_564)">
<path fill-rule="evenodd" clip-rule="evenodd" d="M306.513 110.804C310.466 119.937 307.308 137.447 291.145 148.56C274.981 159.673 259.754 152.634 255.356 144.302C252.726 139.32 253.021 134.006 258.142 128.576C261.584 124.927 267.892 121.507 274.389 117.04C279.844 113.29 284.989 108.91 289.273 106.817C297.683 102.707 303.132 102.991 306.513 110.804Z" fill="#FFDD42" fill-opacity="0.33"/>
<path fill-rule="evenodd" clip-rule="evenodd" d="M280.803 114.749C281.675 113.51 283.647 111.666 286.317 110.186C291.769 107.166 299.073 105.54 302.551 110.025C307.819 116.819 304.984 134.433 296.097 139.26C292.615 141.152 289.578 130.106 287.006 125.914C283.03 119.432 278.79 117.609 280.803 114.749Z" fill="#FDD20C"/>
<path fill-rule="evenodd" clip-rule="evenodd" d="M282.723 114.734C283.404 113.787 286.584 112.19 288.002 111.45C292.15 109.284 297.349 109.34 299.962 112.709C303.918 117.811 301.655 127.409 294.981 131.034C292.365 132.455 289.371 126.22 287.439 123.072C284.453 118.204 281.192 116.865 282.723 114.734Z" fill="white" fill-opacity="0.33"/>
<path fill-rule="evenodd" clip-rule="evenodd" d="M285.107 115.396C285.473 114.888 287.181 114.03 287.942 113.632C290.17 112.469 292.962 112.499 294.365 114.308C296.49 117.049 295.275 122.203 291.691 124.15C290.286 124.913 288.677 121.565 287.64 119.874C286.036 117.26 284.285 116.54 285.107 115.396Z" fill="white" fill-opacity="0.33"/>
<path fill-rule="evenodd" clip-rule="evenodd" d="M266.994 125.088C268.31 126.464 265.277 130.829 267.831 139.228C268.304 140.784 269.058 143.418 271.577 146.22C272.717 147.488 273.619 148.291 272.913 149.197C270.736 151.984 262.134 150.104 257.019 141.007C253.047 133.943 263.842 121.793 266.994 125.088Z" fill="#FDD20C" fill-opacity="0.65"/>
<path fill-rule="evenodd" clip-rule="evenodd" d="M266.034 127.129C266.868 128.177 265.064 130.902 265.863 137.148C266.085 138.879 266.345 141.103 267.416 143.604C268.888 147.04 262.514 146.346 259.472 139.631C257.109 134.416 264.037 124.62 266.034 127.129Z" fill="white" fill-opacity="0.33"/>
<path fill-rule="evenodd" clip-rule="evenodd" d="M265.332 127.604C265.863 128.271 264.916 129.866 264.652 133.985C264.524 135.989 265.273 138.559 264.81 139.396C264.136 140.615 262.463 140.869 260.527 136.596C259.024 133.277 264.062 126.007 265.332 127.604Z" fill="white" fill-opacity="0.33"/>
<path fill-rule="evenodd" clip-rule="evenodd" d="M270.294 122.215C271.261 120.992 272.055 119.931 274.836 118.456C277.524 117.03 280.082 120.398 284.747 127.393C286.284 129.698 291.604 138.393 291.344 142.691C291.179 145.418 286.991 147.633 282.988 149.606C272.031 155.005 265.643 128.093 270.294 122.215Z" fill="#FDD20C" fill-opacity="0.78"/>
<path fill-rule="evenodd" clip-rule="evenodd" d="M271.41 122.476C272.172 121.514 272.796 120.679 274.984 119.518C277.098 118.397 279.111 121.046 282.78 126.549C283.99 128.363 286.802 133.187 286.598 136.568C286.468 138.714 283.814 140.929 280.665 142.481C272.045 146.728 267.752 127.099 271.41 122.476Z" fill="white" fill-opacity="0.33"/>
<path fill-rule="evenodd" clip-rule="evenodd" d="M272.788 123.036C273.285 122.408 273.692 121.863 275.119 121.106C276.499 120.375 277.812 122.103 280.206 125.694C280.995 126.877 282.83 130.025 282.697 132.231C282.612 133.63 280.881 135.076 278.826 136.088C273.202 138.859 270.401 126.053 272.788 123.036Z" fill="white" fill-opacity="0.33"/>
</g>
<g clip-path="url(#clip3_294_564)">
<path fill-rule="evenodd" clip-rule="evenodd" d="M37.5112 115.342C27.702 117.019 11.4367 109.805 4.46731 91.4698C-2.50215 73.1348 7.94299 60.007 17.0791 57.7071C22.5422 56.3316 27.6354 57.8763 31.6977 64.1372C34.4284 68.3461 36.257 75.2838 39.0587 82.6546C41.4103 88.8418 44.4475 94.8782 45.467 99.5354C47.4684 108.68 45.9026 113.907 37.5112 115.342Z" fill="#FFDD42" fill-opacity="0.33"/>
<path fill-rule="evenodd" clip-rule="evenodd" d="M39.7657 89.4287C40.7631 90.5693 42.0881 92.9213 42.8932 95.8659C44.5369 101.878 44.387 109.359 39.2055 111.676C31.3579 115.186 14.9156 108.261 12.3301 98.4837C11.317 94.6523 22.7681 94.3177 27.4498 92.8115C34.6883 90.483 37.4634 86.7955 39.7657 89.4287Z" fill="#FDD20C"/>
<path fill-rule="evenodd" clip-rule="evenodd" d="M39.3255 91.2972C40.0843 92.1827 40.8832 95.651 41.2668 97.2038C42.3884 101.746 41.1031 106.785 37.2116 108.525C31.3178 111.161 22.5285 106.69 20.5866 99.347C19.8258 96.4692 26.5923 95.036 30.1085 93.905C35.5448 92.1563 37.6184 89.305 39.3255 91.2972Z" fill="white" fill-opacity="0.33"/>
<path fill-rule="evenodd" clip-rule="evenodd" d="M38.1179 93.4567C38.5254 93.9324 38.9545 95.7952 39.1604 96.6289C39.7629 99.0686 39.0726 101.775 36.9825 102.709C33.8171 104.125 29.0966 101.724 28.0539 97.7802C27.6451 96.2345 31.2794 95.4648 33.1677 94.8573C36.0873 93.9181 37.2009 92.387 38.1179 93.4567Z" fill="white" fill-opacity="0.33"/>
<path fill-rule="evenodd" clip-rule="evenodd" d="M32.9907 73.5637C31.3422 74.5169 27.8195 70.5366 19.0542 71.0286C17.4314 71.1196 14.6932 71.2283 11.3746 73.0124C9.87234 73.8202 8.87843 74.5066 8.1663 73.6055C5.9731 70.8307 9.83727 62.9184 19.886 60.1028C27.6897 57.9163 36.9381 71.2818 32.9907 73.5637Z" fill="#FDD20C" fill-opacity="0.65"/>
<path fill-rule="evenodd" clip-rule="evenodd" d="M31.2353 72.1481C30.0197 72.7101 27.7994 70.3126 21.5412 69.6097C19.8072 69.4149 17.5845 69.141 14.9008 69.5895C11.2143 70.2055 13.3979 64.1773 20.6424 62.8117C26.2685 61.7514 34.1455 70.8023 31.2353 72.1481Z" fill="white" fill-opacity="0.33"/>
<path fill-rule="evenodd" clip-rule="evenodd" d="M30.9399 71.3536C30.1664 71.7113 28.841 70.4135 24.9007 69.1818C22.9844 68.583 20.3106 68.7021 19.6068 68.0541C18.5824 67.1106 18.7316 65.4251 23.3415 64.5562C26.9214 63.8814 32.7916 70.4974 30.9399 71.3536Z" fill="white" fill-opacity="0.33"/>
<path fill-rule="evenodd" clip-rule="evenodd" d="M35.0007 77.45C35.9598 78.6795 36.8027 79.7024 37.5772 82.7532C38.3261 85.702 34.4482 87.39 26.5475 90.2657C23.9438 91.2136 14.2365 94.3236 10.1224 93.053C7.51206 92.2472 6.35126 87.654 5.38253 83.2974C2.73166 71.3732 30.3914 71.54 35.0007 77.45Z" fill="#FDD20C" fill-opacity="0.78"/>
<path fill-rule="evenodd" clip-rule="evenodd" d="M34.4831 78.4732C35.2375 79.4406 35.9005 80.2452 36.5101 82.6454C37.0992 84.965 34.0484 86.2929 27.8331 88.5554C25.7848 89.3009 20.4313 90.891 17.1948 89.8916C15.1413 89.2574 13.6173 86.155 12.8554 82.7275C10.7698 73.3474 30.8571 73.8241 34.4831 78.4732Z" fill="white" fill-opacity="0.33"/>
<path fill-rule="evenodd" clip-rule="evenodd" d="M33.6126 79.6789C34.1048 80.3101 34.5375 80.8352 34.9351 82.401C35.3195 83.9146 33.3289 84.7808 29.2739 86.2568C27.9375 86.7434 24.4447 87.7807 22.333 87.1289C20.9934 86.7151 19.9989 84.6907 19.5016 82.4547C18.1411 76.3347 31.2468 76.6458 33.6126 79.6789Z" fill="white" fill-opacity="0.33"/>
</g>
<defs>
<clipPath id="clip0_294_564">
<rect width="106.865" height="163.908" fill="white" transform="translate(180.913) rotate(42.5767)"/>
</clipPath>
<clipPath id="clip1_294_564">
<rect width="36.8252" height="50.5444" fill="white" transform="translate(83.9341 18.9315) rotate(45.3115)"/>
</clipPath>
<clipPath id="clip2_294_564">
<rect width="45.8666" height="57.4349" fill="white" transform="translate(257.013 157.728) rotate(-100.061)"/>
</clipPath>
<clipPath id="clip3_294_564">
<rect width="45.8666" height="57.4349" fill="white" transform="translate(3.64212 56.1379) rotate(3.63573)"/>
</clipPath>
</defs>
</svg>
