<?xml version="1.0" encoding="UTF-8" standalone="no"?><!DOCTYPE svg PUBLIC "-//W3C//DTD SVG 1.1//EN" "http://www.w3.org/Graphics/SVG/1.1/DTD/svg11.dtd"><svg width="100%" height="100%" viewBox="0 0 1163 169" version="1.1" xmlns="http://www.w3.org/2000/svg" xmlns:xlink="http://www.w3.org/1999/xlink" xml:space="preserve" xmlns:serif="http://www.serif.com/" style="fill-rule:evenodd;clip-rule:evenodd;stroke-linejoin:round;stroke-miterlimit:2;"><g><path d="M128.255,74.973c0.32,3.571 0.48,7.264 0.48,11.082c0,16.64 -3.014,30.942 -9.043,42.906c-6.028,11.965 -14.769,21.157 -26.223,27.576c-11.453,6.419 -25.292,9.629 -41.515,9.629l-51.954,0l0,-47.408c39.59,-20.975 82.746,-34.753 128.255,-43.785Zm-128.255,7.297l0,-75.838l53.508,0c15.735,0 29.203,3.184 40.406,9.551c11.203,6.368 19.807,15.505 25.813,27.41c4.047,8.024 6.73,17.098 8.05,27.224c-8.142,-0.212 -16.232,-0.314 -24.257,-0.275c-0.983,-5.919 -2.565,-11.259 -4.747,-16.017c-3.968,-8.656 -9.855,-15.235 -17.66,-19.736c-7.804,-4.501 -19.191,-6.751 -29.173,-6.751l-27.441,-0l0,48.959c-8.315,1.505 -16.488,3.315 -24.499,5.473Zm24.499,58.708l0,3.783l26.091,-0c12.094,-0 22.148,-2.262 30.161,-6.786c8.013,-4.524 14.012,-11.158 17.997,-19.902c3.837,-8.416 5.827,-18.621 5.97,-30.613c-28.348,13.247 -55.308,30.456 -80.219,53.518Z" style="fill:#fff;"/><path d="M197.512,167.667c-8.141,0 -15.283,-1.71 -21.426,-5.13c-6.143,-3.42 -10.915,-8.495 -14.316,-15.226c-3.401,-6.731 -5.101,-15.013 -5.101,-24.846l-0,-76.153l23.579,0l0,73.214c0,8.627 2.263,15.386 6.789,20.276c4.525,4.889 10.705,7.334 18.54,7.334c5.331,-0 10.089,-1.164 14.274,-3.492c4.185,-2.328 7.49,-5.727 9.916,-10.198c2.425,-4.47 3.638,-9.843 3.638,-16.118l-0,-71.016l23.669,0l-0,119.854l-22.572,0l-0.154,-29.342l2.342,0c-3.537,10.836 -8.653,18.685 -15.35,23.548c-6.696,4.863 -14.639,7.295 -23.828,7.295Z" style="fill:#fff;fill-rule:nonzero;"/><path d="M288.789,166.166l-0,-119.854l22.821,0l-0,19.25l1.286,-0c2.204,-6.513 6.062,-11.629 11.577,-15.348c5.514,-3.719 11.774,-5.579 18.779,-5.579c1.507,0 3.234,0.055 5.18,0.165c1.946,0.11 3.542,0.246 4.788,0.408l0,22.51c-0.854,-0.258 -2.499,-0.533 -4.934,-0.826c-2.435,-0.293 -4.907,-0.439 -7.416,-0.439c-5.447,0 -10.334,1.152 -14.66,3.457c-4.326,2.304 -7.715,5.476 -10.165,9.516c-2.451,4.039 -3.676,8.697 -3.676,13.974l-0,72.766l-23.58,0Z" style="fill:#fff;fill-rule:nonzero;"/><path d="M375.424,166.166l0,-119.854l23.585,0l0,119.854l-23.585,0Zm11.9,-137.02c-4.074,0 -7.558,-1.414 -10.452,-4.243c-2.895,-2.829 -4.342,-6.254 -4.342,-10.274c-0,-4.095 1.447,-7.556 4.342,-10.385c2.894,-2.829 6.378,-4.244 10.452,-4.244c4.074,0 7.576,1.415 10.506,4.244c2.93,2.829 4.395,6.29 4.395,10.385c0,4.02 -1.465,7.445 -4.395,10.274c-2.93,2.829 -6.432,4.243 -10.506,4.243Z" style="fill:#fff;fill-rule:nonzero;"/><path d="M464.247,168.799c-7.588,0 -14.448,-1.4 -20.579,-4.201c-6.13,-2.8 -10.986,-6.92 -14.567,-12.359c-3.581,-5.439 -5.371,-12.096 -5.371,-19.971c0,-6.81 1.313,-12.391 3.939,-16.743c2.626,-4.353 6.16,-7.806 10.602,-10.362c4.441,-2.556 9.398,-4.476 14.869,-5.762c5.471,-1.286 11.052,-2.261 16.741,-2.924c7.07,-0.852 12.815,-1.548 17.233,-2.086c4.419,-0.539 7.687,-1.432 9.802,-2.679c2.116,-1.247 3.174,-3.278 3.174,-6.093l-0,-0.605c-0,-4.474 -0.862,-8.262 -2.585,-11.362c-1.723,-3.099 -4.289,-5.479 -7.696,-7.138c-3.408,-1.659 -7.648,-2.488 -12.721,-2.488c-5.177,-0 -9.636,0.803 -13.375,2.41c-3.739,1.607 -6.781,3.651 -9.125,6.132c-2.344,2.481 -4.089,5.082 -5.234,7.805l-22.193,-5.705c2.726,-7.188 6.626,-12.961 11.702,-17.321c5.076,-4.361 10.897,-7.54 17.463,-9.538c6.566,-1.999 13.378,-2.998 20.438,-2.998c4.813,0 9.936,0.576 15.367,1.727c5.432,1.152 10.537,3.221 15.315,6.208c4.779,2.987 8.678,7.209 11.697,12.665c3.019,5.456 4.528,12.518 4.528,21.186l0,79.569l-22.816,0l0,-16.41l-1.209,-0c-1.551,3.095 -3.863,6.107 -6.935,9.034c-3.072,2.927 -6.957,5.328 -11.656,7.2c-4.699,1.873 -10.301,2.809 -16.808,2.809Zm5.234,-18.879c6.452,-0 11.961,-1.265 16.525,-3.795c4.565,-2.53 8.066,-5.855 10.504,-9.974c2.438,-4.12 3.657,-8.5 3.657,-13.141l-0,-15.401c-0.85,0.839 -2.475,1.605 -4.876,2.298c-2.4,0.693 -5.124,1.305 -8.171,1.838c-3.048,0.533 -6.014,0.986 -8.898,1.36c-2.885,0.374 -5.243,0.675 -7.076,0.901c-4.413,0.56 -8.465,1.517 -12.156,2.872c-3.691,1.355 -6.622,3.283 -8.795,5.783c-2.172,2.499 -3.259,5.811 -3.259,9.935c0,3.798 0.976,6.978 2.927,9.541c1.951,2.562 4.617,4.5 7.999,5.813c3.382,1.313 7.255,1.97 11.619,1.97Z" style="fill:#fff;fill-rule:nonzero;"/><path d="M578.966,95.15l-0,71.016l-23.58,0l-0,-119.854l22.482,0l0.243,29.342l-2.43,0c3.478,-10.718 8.536,-18.538 15.174,-23.46c6.638,-4.922 14.669,-7.383 24.093,-7.383c8.153,0 15.283,1.71 21.39,5.13c6.107,3.42 10.861,8.481 14.262,15.182c3.401,6.701 5.102,14.998 5.102,24.89l-0,76.153l-23.58,0l-0,-73.213c-0,-8.628 -2.248,-15.387 -6.744,-20.276c-4.496,-4.89 -10.661,-7.334 -18.496,-7.334c-5.319,-0 -10.088,1.163 -14.308,3.491c-4.22,2.328 -7.543,5.709 -9.969,10.144c-2.426,4.435 -3.639,9.826 -3.639,16.172Z" style="fill:#fff;fill-rule:nonzero;"/><path d="M689.235,166.166l0,-159.734l57.222,0c12.333,0 22.597,2.282 30.791,6.846c8.195,4.564 14.336,10.747 18.424,18.549c4.089,7.802 6.133,16.623 6.133,26.462c-0,9.853 -2.054,18.693 -6.161,26.521c-4.107,7.828 -10.266,14.026 -18.477,18.593c-8.211,4.568 -18.508,6.851 -30.892,6.851l-39.145,0l0,-20.739l36.771,0c7.842,0 14.2,-1.35 19.077,-4.052c4.876,-2.701 8.44,-6.413 10.692,-11.137c2.251,-4.724 3.377,-10.069 3.377,-16.037c0,-5.994 -1.126,-11.319 -3.377,-15.978c-2.252,-4.658 -5.831,-8.314 -10.736,-10.966c-4.905,-2.653 -11.308,-3.98 -19.209,-3.98l-29.99,0l-0,138.801l-24.5,0Z" style="fill:#fff;fill-rule:nonzero;"/><path d="M860.905,168.799c-7.588,0 -14.447,-1.4 -20.578,-4.201c-6.13,-2.8 -10.986,-6.92 -14.567,-12.359c-3.581,-5.439 -5.371,-12.096 -5.371,-19.971c0,-6.81 1.313,-12.391 3.939,-16.743c2.626,-4.353 6.16,-7.806 10.601,-10.362c4.442,-2.556 9.399,-4.476 14.87,-5.762c5.471,-1.286 11.052,-2.261 16.741,-2.924c7.07,-0.852 12.815,-1.548 17.233,-2.086c4.419,-0.539 7.686,-1.432 9.802,-2.679c2.116,-1.247 3.173,-3.278 3.173,-6.093l0,-0.605c0,-4.474 -0.861,-8.262 -2.584,-11.362c-1.723,-3.099 -4.289,-5.479 -7.696,-7.138c-3.408,-1.659 -7.648,-2.488 -12.722,-2.488c-5.177,-0 -9.635,0.803 -13.374,2.41c-3.739,1.607 -6.781,3.651 -9.125,6.132c-2.344,2.481 -4.089,5.082 -5.235,7.805l-22.192,-5.705c2.725,-7.188 6.626,-12.961 11.702,-17.321c5.076,-4.361 10.897,-7.54 17.463,-9.538c6.566,-1.999 13.378,-2.998 20.438,-2.998c4.813,0 9.936,0.576 15.367,1.727c5.432,1.152 10.537,3.221 15.315,6.208c4.779,2.987 8.677,7.209 11.696,12.665c3.019,5.456 4.529,12.518 4.529,21.186l-0,79.569l-22.816,0l-0,-16.41l-1.209,-0c-1.552,3.095 -3.863,6.107 -6.935,9.034c-3.072,2.927 -6.958,5.328 -11.656,7.2c-4.699,1.873 -10.302,2.809 -16.809,2.809Zm5.235,-18.879c6.452,-0 11.961,-1.265 16.525,-3.795c4.565,-2.53 8.066,-5.855 10.504,-9.974c2.438,-4.12 3.656,-8.5 3.656,-13.141l0,-15.401c-0.849,0.839 -2.474,1.605 -4.875,2.298c-2.4,0.693 -5.124,1.305 -8.172,1.838c-3.047,0.533 -6.013,0.986 -8.898,1.36c-2.884,0.374 -5.242,0.675 -7.075,0.901c-4.413,0.56 -8.465,1.517 -12.156,2.872c-3.691,1.355 -6.622,3.283 -8.795,5.783c-2.172,2.499 -3.259,5.811 -3.259,9.935c0,3.798 0.976,6.978 2.927,9.541c1.951,2.562 4.617,4.5 7.999,5.813c3.382,1.313 7.255,1.97 11.619,1.97Z" style="fill:#fff;fill-rule:nonzero;"/><path d="M995.079,168.662c-8.695,0 -16.415,-1.258 -23.159,-3.775c-6.744,-2.516 -12.282,-6.22 -16.614,-11.11c-4.332,-4.891 -7.206,-10.857 -8.622,-17.898l22.21,-4.646c1.664,6.24 4.734,10.849 9.21,13.826c4.477,2.977 10.192,4.465 17.145,4.465c7.616,0 13.673,-1.581 18.171,-4.742c4.497,-3.162 6.746,-6.984 6.746,-11.465c-0,-3.811 -1.386,-6.966 -4.158,-9.467c-2.773,-2.501 -7.015,-4.385 -12.728,-5.653l-20.171,-4.562c-11.096,-2.51 -19.359,-6.507 -24.789,-11.993c-5.43,-5.486 -8.145,-12.535 -8.145,-21.149c0,-7.131 1.985,-13.371 5.953,-18.721c3.969,-5.349 9.436,-9.514 16.401,-12.493c6.965,-2.978 14.964,-4.468 23.997,-4.468c8.643,0 16.038,1.259 22.184,3.776c6.145,2.517 11.132,6.011 14.96,10.483c3.827,4.472 6.583,9.679 8.267,15.621l-21.16,4.677c-1.515,-4.225 -4.123,-7.937 -7.825,-11.136c-3.701,-3.199 -9.096,-4.799 -16.185,-4.799c-6.529,-0 -11.974,1.467 -16.334,4.4c-4.361,2.934 -6.541,6.677 -6.541,11.23c0,3.955 1.457,7.173 4.371,9.654c2.915,2.481 7.648,4.466 14.201,5.954l19.256,4.288c11.108,2.496 19.345,6.433 24.71,11.81c5.365,5.376 8.048,12.232 8.048,20.566c-0,7.288 -2.086,13.736 -6.259,19.344c-4.173,5.609 -9.972,10.008 -17.398,13.198c-7.426,3.19 -16.007,4.785 -25.742,4.785Z" style="fill:#fff;fill-rule:nonzero;"/><path d="M1113.34,168.662c-8.695,0 -16.415,-1.258 -23.159,-3.775c-6.744,-2.516 -12.282,-6.22 -16.614,-11.11c-4.332,-4.891 -7.206,-10.857 -8.622,-17.898l22.21,-4.646c1.664,6.24 4.734,10.849 9.21,13.826c4.477,2.977 10.192,4.465 17.145,4.465c7.616,0 13.673,-1.581 18.171,-4.742c4.497,-3.162 6.746,-6.984 6.746,-11.465c-0,-3.811 -1.386,-6.966 -4.158,-9.467c-2.773,-2.501 -7.015,-4.385 -12.728,-5.653l-20.171,-4.562c-11.096,-2.51 -19.359,-6.507 -24.789,-11.993c-5.43,-5.486 -8.145,-12.535 -8.145,-21.149c0,-7.131 1.984,-13.371 5.953,-18.721c3.969,-5.349 9.436,-9.514 16.401,-12.493c6.965,-2.978 14.964,-4.468 23.997,-4.468c8.643,0 16.038,1.259 22.183,3.776c6.146,2.517 11.133,6.011 14.96,10.483c3.828,4.472 6.584,9.679 8.268,15.621l-21.16,4.677c-1.515,-4.225 -4.123,-7.937 -7.825,-11.136c-3.701,-3.199 -9.096,-4.799 -16.185,-4.799c-6.529,-0 -11.974,1.467 -16.334,4.4c-4.361,2.934 -6.541,6.677 -6.541,11.23c0,3.955 1.457,7.173 4.371,9.654c2.914,2.481 7.648,4.466 14.201,5.954l19.256,4.288c11.108,2.496 19.345,6.433 24.71,11.81c5.365,5.376 8.048,12.232 8.048,20.566c-0,7.288 -2.087,13.736 -6.259,19.344c-4.173,5.609 -9.972,10.008 -17.398,13.198c-7.426,3.19 -16.007,4.785 -25.742,4.785Z" style="fill:#fff;fill-rule:nonzero;"/></g></svg>