<svg width="393" height="362" viewBox="0 0 393 362" fill="none" xmlns="http://www.w3.org/2000/svg">
<rect x="337.775" y="73.5" width="11" height="39" rx="5.5" transform="rotate(60 337.775 73.5)" fill="white" fill-opacity="0.63"/>
<rect x="426.976" y="22" width="11" height="96" rx="5.5" transform="rotate(60 426.976 22)" fill="white" fill-opacity="0.63"/>
<rect x="206.775" y="148.5" width="11" height="39" rx="5.5" transform="rotate(60 206.775 148.5)" fill="white" fill-opacity="0.2"/>
<rect x="295.976" y="97" width="11" height="96" rx="5.5" transform="rotate(60 295.976 97)" fill="white" fill-opacity="0.2"/>
<rect x="75.775" y="223.5" width="11" height="39" rx="5.5" transform="rotate(60 75.775 223.5)" fill="white" fill-opacity="0.12"/>
<rect x="164.976" y="172" width="11" height="96" rx="5.5" transform="rotate(60 164.976 172)" fill="white" fill-opacity="0.12"/>
<rect x="173.052" y="51.1157" width="11" height="39" rx="5.5" transform="rotate(127.952 173.052 51.1157)" fill="white" fill-opacity="0.23"/>
<rect x="345.925" y="185.949" width="11" height="39" rx="5.5" transform="rotate(127.952 345.925 185.949)" fill="white" fill-opacity="0.23"/>
<rect x="254.269" y="114.461" width="11" height="96" rx="5.5" transform="rotate(127.952 254.269 114.461)" fill="white" fill-opacity="0.23"/>
<rect x="309.799" y="157.472" width="11" height="46" rx="5.5" transform="rotate(127.952 309.799 157.472)" fill="white" fill-opacity="0.23"/>
<rect x="268.007" y="124.876" width="11" height="11" rx="5.5" transform="rotate(127.952 268.007 124.876)" fill="white" fill-opacity="0.23"/>
<rect x="76.7094" y="17.2725" width="11" height="39" rx="5.5" transform="rotate(-157.89 76.7094 17.2725)" fill="white" fill-opacity="0.08"/>
<rect x="-5.8089" y="220.388" width="11" height="39" rx="5.5" transform="rotate(-157.89 -5.8089 220.388)" fill="white" fill-opacity="0.08"/>
<rect x="37.9416" y="112.698" width="11" height="96" rx="5.5" transform="rotate(-157.89 37.9416 112.698)" fill="white" fill-opacity="0.08"/>
<rect x="11.7244" y="177.86" width="11" height="46" rx="5.5" transform="rotate(-157.89 11.7244 177.86)" fill="white" fill-opacity="0.08"/>
<rect x="31.6729" y="128.757" width="11" height="11" rx="5.5" transform="rotate(-157.89 31.6729 128.757)" fill="white" fill-opacity="0.08"/>
<rect x="314.817" y="196.581" width="11" height="39" rx="5.5" transform="rotate(94.7604 314.817 196.581)" fill="white" fill-opacity="0.44"/>
<rect x="417.462" y="205.128" width="11" height="96" rx="5.5" transform="rotate(94.7604 417.462 205.128)" fill="white" fill-opacity="0.44"/>
<rect x="123.037" y="12.4614" width="11" height="96" rx="5.5" transform="rotate(127.952 123.037 12.4614)" fill="white" fill-opacity="0.23"/>
<rect x="136.775" y="22.876" width="11" height="11" rx="5.5" transform="rotate(127.952 136.775 22.876)" fill="white" fill-opacity="0.23"/>
<rect x="119.19" y="188.974" width="11" height="39" rx="5.5" transform="rotate(-82.8899 119.19 188.974)" fill="white" fill-opacity="0.1"/>
<rect x="16.9817" y="176.225" width="11" height="96" rx="5.5" transform="rotate(-82.8899 16.9817 176.225)" fill="white" fill-opacity="0.1"/>
<rect x="-0.152954" y="174.326" width="11" height="11" rx="5.5" transform="rotate(-82.8899 -0.152954 174.326)" fill="white" fill-opacity="0.1"/>
<rect x="259.091" y="219.859" width="11" height="39" rx="5.5" transform="rotate(-107.983 259.091 219.859)" fill="white" fill-opacity="0.14"/>
<rect x="50.5634" y="287.546" width="11" height="39" rx="5.5" transform="rotate(-107.983 50.5634 287.546)" fill="white" fill-opacity="0.14"/>
<rect x="161.123" y="251.659" width="11" height="96" rx="5.5" transform="rotate(-107.983 161.123 251.659)" fill="white" fill-opacity="0.14"/>
<rect x="94.3893" y="273.57" width="11" height="46" rx="5.5" transform="rotate(-107.983 94.3893 273.57)" fill="white" fill-opacity="0.14"/>
<rect x="144.8" y="257.207" width="11" height="11" rx="5.5" transform="rotate(-107.983 144.8 257.207)" fill="white" fill-opacity="0.14"/>
</svg>
